<?xml version="1.0" standalone="no"?>
<!DOCTYPE svg PUBLIC "-//W3C//DTD SVG 20010904//EN"
 "http://www.w3.org/TR/2001/REC-SVG-20010904/DTD/svg10.dtd">
<svg version="1.0" xmlns="http://www.w3.org/2000/svg"
 width="710.000000pt" height="1400.000000pt" viewBox="0 0 710.000000 1400.000000"
 preserveAspectRatio="xMidYMid meet">
<metadata>
Created by potrace 1.15, written by Peter Selinger 2001-2017
</metadata>
<g transform="translate(0.000000,1400.000000) scale(0.100000,-0.100000)"
fill="#000000" stroke="none">
<path d="M3190 13844 c-226 -18 -319 -28 -470 -50 -181 -25 -432 -78 -558
-116 l-72 -21 0 -99 c0 -54 2 -98 4 -98 2 0 23 7 47 15 222 79 589 149 944
180 312 28 804 21 1110 -16 278 -33 662 -115 823 -176 9 -4 12 19 12 95 l0
101 -67 21 c-188 56 -541 120 -838 150 -104 11 -839 22 -935 14z"/>
<path d="M3135 10563 c-316 -20 -643 -67 -915 -129 -440 -102 -1021 -313
-1117 -406 -29 -28 -33 -38 -33 -85 0 -30 7 -86 15 -126 18 -87 328 -1857 346
-1974 7 -46 16 -83 20 -83 4 0 45 16 91 36 203 87 493 173 742 219 360 66 580
80 1276 80 572 0 750 -7 1025 -40 338 -41 716 -139 993 -257 51 -22 94 -39 96
-37 1 2 53 292 115 644 61 352 145 830 186 1063 74 417 85 506 65 542 -15 28
-91 71 -236 133 -470 201 -1005 338 -1557 398 -159 18 -265 22 -622 24 -236 1
-457 1 -490 -2z"/>
<path d="M6202 9845 c-1 -5 -15 -102 -32 -215 -220 -1484 -333 -2242 -346
-2320 -11 -69 -26 -403 -53 -1240 -21 -630 -37 -1146 -35 -1148 1 -2 95 34
209 80 l206 83 -6 140 c-4 77 -8 160 -10 185 -2 25 -6 218 -10 430 -8 427 -1
686 45 1595 33 658 50 1130 50 1401 l0 181 24 11 c31 14 79 83 122 178 l34 74
78 -6 c191 -14 337 -53 477 -127 l65 -35 15 22 c19 26 17 28 -115 95 -171 88
-325 124 -527 125 l-123 1 0 33 c0 74 55 132 124 132 14 0 26 5 26 10 0 44
-86 131 -161 162 l-48 20 -4 72 c-1 39 -4 67 -5 61z"/>
<path d="M908 9771 l-3 -52 -56 -23 c-68 -28 -122 -68 -149 -111 -28 -46 -26
-65 8 -65 63 0 128 -74 120 -137 l-3 -25 -140 -4 c-168 -4 -304 -32 -442 -92
-104 -45 -193 -98 -193 -116 0 -35 23 -33 108 11 142 72 289 110 452 115 l85
3 45 -90 c51 -102 109 -170 138 -163 18 5 19 -8 26 -341 8 -397 17 -632 51
-1316 36 -702 45 -964 45 -1270 0 -273 -14 -768 -26 -925 l-6 -85 206 -84
c114 -46 208 -82 210 -80 2 2 -11 504 -30 1114 l-35 1110 -120 810 c-203 1377
-276 1855 -282 1861 -3 4 -7 -17 -9 -45z"/>
<path d="M600 7000 c-19 -19 -20 -33 -20 -308 0 -267 1 -290 18 -305 41 -37
42 -31 42 308 0 210 -4 325 -10 325 -5 0 -19 -9 -30 -20z"/>
<path d="M6480 6695 c0 -342 2 -353 43 -307 15 16 17 53 17 309 0 268 -1 291
-18 306 -41 37 -42 31 -42 -308z"/>
<path d="M5950 4774 c-113 -58 -208 -108 -212 -112 -4 -4 -18 -432 -32 -952
l-24 -945 33 -130 c40 -154 86 -290 162 -475 69 -167 233 -505 266 -545 l25
-29 7 494 c16 1137 8 2800 -14 2800 -3 0 -98 -48 -211 -106z"/>
<path d="M953 4833 c-11 -50 -7 -3076 4 -3173 l8 -75 58 100 c146 257 336 729
399 994 21 91 21 112 3 676 -3 83 -10 337 -15 565 -5 228 -13 488 -16 578 l-6
163 -209 104 c-115 58 -211 105 -213 105 -3 0 -9 -17 -13 -37z"/>
<path d="M572 4364 c-22 -15 -22 -17 -22 -309 0 -254 2 -296 16 -309 8 -9 22
-16 30 -16 12 0 14 50 14 325 0 179 -3 325 -8 325 -4 0 -18 -7 -30 -16z"/>
<path d="M6510 4050 l0 -329 23 8 c44 16 47 38 45 332 -3 256 -4 279 -22 298
-45 49 -46 42 -46 -309z"/>
<path d="M1625 1633 c-78 -185 -155 -504 -180 -740 -6 -56 -5 -64 17 -86 57
-57 252 -115 818 -241 511 -114 668 -130 1280 -130 595 -1 768 15 1232 115
608 129 789 185 853 261 25 30 26 35 20 107 -11 119 -43 295 -76 421 -29 110
-94 297 -108 312 -3 4 -44 -7 -91 -23 -385 -137 -875 -232 -1390 -269 -189
-14 -677 -14 -855 0 -504 39 -1014 141 -1407 279 -47 17 -89 31 -92 31 -3 0
-13 -17 -21 -37z"/>
<path d="M1145 616 c-5 -3 -23 -7 -38 -10 -15 -4 -25 -11 -22 -17 10 -15 178
-97 276 -134 126 -49 342 -109 514 -143 203 -41 245 -47 245 -33 0 24 -40 114
-65 147 -48 63 -70 69 -255 69 l-165 1 -165 56 c-120 41 -185 58 -240 62 -41
3 -79 4 -85 2z"/>
<path d="M5701 609 c-24 -5 -112 -32 -195 -61 l-151 -53 -165 0 c-182 0 -186
-1 -243 -64 -33 -37 -85 -166 -72 -179 8 -9 377 58 520 94 182 46 387 115 500
168 l90 42 -28 18 c-65 43 -153 55 -256 35z"/>
<path d="M2675 256 c-34 -14 -60 -42 -48 -49 52 -31 1296 -45 1673 -18 107 7
197 15 199 17 8 7 -25 38 -56 51 -47 19 -1723 19 -1768 -1z"/>
</g>
</svg>
