<?xml version="1.0" encoding="utf-8"?>
<!-- Generator: Adobe Illustrator 16.0.0, SVG Export Plug-In . SVG Version: 6.00 Build 0)  -->
<!DOCTYPE svg PUBLIC "-//W3C//DTD SVG 1.1//EN" "http://www.w3.org/Graphics/SVG/1.1/DTD/svg11.dtd">
<svg version="1.1" id="Yellow" xmlns="http://www.w3.org/2000/svg" xmlns:xlink="http://www.w3.org/1999/xlink" x="0px" y="0px"
	 width="256px" height="256px" viewBox="0 0 256 256" style="enable-background:new 0 0 256 256;" xml:space="preserve">
<style type="text/css">
<![CDATA[
	.st0{opacity:0.3;fill:url(#SVGID_33_);enable-background:new    ;}
	.st1{fill:url(#SVGID_32_);stroke:#000000;stroke-width:0.75;enable-background:new    ;}
	.st2{fill:url(#SVGID_4_);stroke:#000000;stroke-width:0.75;enable-background:new    ;}
	.st3{opacity:0.8;fill:url(#SVGID_5_);enable-background:new    ;}
	.st4{opacity:0.3;fill:url(#SVGID_7_);enable-background:new    ;}
	.st5{opacity:0.3;fill:url(#SVGID_17_);}
	.st6{opacity:0.5;fill:url(#SVGID_13_);enable-background:new    ;}
	.st7{fill:url(#SVGID_1_);}
	.st8{fill:url(#SVGID_2_);}
	.st9{fill:url(#SVGID_3_);}
	.st10{fill:url(#SVGID_6_);}
	.st11{fill:url(#SVGID_8_);}
	.st12{fill:url(#SVGID_9_);}
	.st13{opacity:0.3;}
	.st14{opacity:0.5;fill:url(#SVGID_15_);enable-background:new    ;}
	.st15{opacity:0.8;fill:url(#SVGID_22_);enable-background:new    ;}
	.st16{fill:url(#SVGID_10_);}
	.st17{fill:url(#SVGID_11_);}
	.st18{fill:url(#SVGID_12_);}
	.st19{fill:url(#SVGID_14_);}
	.st20{fill:url(#SVGID_16_);}
	.st21{fill:url(#SVGID_20_);}
	.st22{fill:url(#SVGID_21_);}
	.st23{fill:url(#SVGID_23_);}
	.st24{fill:url(#SVGID_24_);}
	.st25{fill:url(#SVGID_25_);}
	.st26{fill:url(#SVGID_26_);}
	.st27{fill:url(#SVGID_27_);}
	.st28{fill:url(#SVGID_28_);}
	.st29{fill:url(#SVGID_29_);}
	.st30{fill:url(#SVGID_30_);}
	.st31{fill:url(#SVGID_31_);}
	.st32{fill:url(#SVGID_19_);stroke:#000000;stroke-width:0.75;enable-background:new    ;}
	.st33{fill:url(#SVGID_18_);stroke:#000000;stroke-width:0.75;enable-background:new    ;}
]]>
</style>
<g>
	
		<radialGradient id="SVGID_1_" cx="1117.8555" cy="6580.0313" r="222.3688" gradientTransform="matrix(-1 0 0 -0.6813 1299.668 4591.1895)" gradientUnits="userSpaceOnUse">
		<stop  offset="0" style="stop-color:#D76360"/>
		<stop  offset="0.5" style="stop-color:#CC3A37"/>
		<stop  offset="1" style="stop-color:#A10C0B"/>
	</radialGradient>
	<path class="st7" d="M2,127.9c0,1.4,0,2.8,0,4.1c0,0,0,0,0,0c0.3,15.1,1.9,31,12.7,37.2c12.7,7.3,34.9,10.7,128.2,10.7
		c101.3,0,99.6,2.4,107-13.2c6.8-14.5,6.8-63.3,0-77.7c-7.3-15.6-5.7-13.2-107-13.2c-93.3,0-115.5,3.4-128.2,10.7
		C4,92.8,2.3,108.7,2,123.8c0,0,0,0,0,0C2,125.2,2,126.6,2,127.9z"/>
	<g>
		<linearGradient id="SVGID_2_" gradientUnits="userSpaceOnUse" x1="12.5039" y1="91.1572" x2="18.8379" y2="98.8242">
			<stop  offset="0" style="stop-color:#4C4C4C"/>
			<stop  offset="1" style="stop-color:#E4E4E4"/>
		</linearGradient>
		<path class="st8" d="M8.4,103.9c0,0,6.6-7.1,9-12c2.4-4.9,4.2-7.6,4.2-7.6s-7.8,2.7-9.8,8.3C9.8,98.3,8.4,103.9,8.4,103.9z"/>
		
			<linearGradient id="SVGID_3_" gradientUnits="userSpaceOnUse" x1="12.5039" y1="6573.7314" x2="18.8387" y2="6581.3994" gradientTransform="matrix(1 0 0 -1 0 6738.4648)">
			<stop  offset="0" style="stop-color:#4C4C4C"/>
			<stop  offset="1" style="stop-color:#E4E4E4"/>
		</linearGradient>
		<path class="st9" d="M8.4,152c0,0,6.6,7.1,9,12c2.4,4.9,4.2,7.6,4.2,7.6s-7.8-2.7-9.8-8.3C9.8,157.6,8.4,152,8.4,152z"/>
	</g>
	<g>
		<path d="M12.8,92.6c1.4-4.2,6.1-6.7,8.4-7.8c0.2-0.4,0.3-0.5,0.3-0.5s-7.8,2.7-9.8,8.3c-2,5.6-3.4,11.2-3.4,11.2s0.6-0.6,1.4-1.6
			C10.4,100.2,11.5,96.4,12.8,92.6z"/>
		<path d="M12.8,163.2c-1.3-3.8-2.4-7.6-3-9.6c-0.9-1-1.4-1.6-1.4-1.6s1.5,5.6,3.4,11.2c2,5.6,9.8,8.3,9.8,8.3s-0.1-0.2-0.3-0.5
			C18.9,170,14.2,167.4,12.8,163.2z"/>
	</g>
	<linearGradient id="SVGID_4_" gradientUnits="userSpaceOnUse" x1="83.7261" y1="100.2188" x2="112.3923" y2="180.8863">
		<stop  offset="5.618000e-003" style="stop-color:#4C4C4C"/>
		<stop  offset="8.088201e-002" style="stop-color:#373737"/>
		<stop  offset="0.1734" style="stop-color:#232324"/>
		<stop  offset="0.2676" style="stop-color:#181819"/>
		<stop  offset="0.3652" style="stop-color:#141415"/>
		<stop  offset="0.44" style="stop-color:#1B1C1E"/>
		<stop  offset="0.5621" style="stop-color:#303336"/>
		<stop  offset="0.7152" style="stop-color:#51575E"/>
		<stop  offset="0.8146" style="stop-color:#69727B"/>
		<stop  offset="1" style="stop-color:#3A3C3E"/>
	</linearGradient>
	<path class="st2" d="M65,130.5c0,25.4,8.5,33,13.4,37.9c4.9,4.9,36.5-2.7,37.4-6.6c0.7-3.3-0.2-23-0.2-33.8
		c0.1-10.8,0.9-30.5,0.2-33.8c-0.8-3.9-32.5-11.5-37.4-6.6C73.6,92.4,65,100,65,125.4C65,126.3,65,129.6,65,130.5z"/>
	
		<radialGradient id="SVGID_5_" cx="1361.1943" cy="6564.0977" r="90.9594" gradientTransform="matrix(-0.9135 0 0 -1 1231.4229 6688.3047)" gradientUnits="userSpaceOnUse">
		<stop  offset="0.1264" style="stop-color:#000000;stop-opacity:0.2"/>
		<stop  offset="1" style="stop-color:#000000;stop-opacity:0"/>
	</radialGradient>
	<path class="st3" d="M79.4,81.4c0,0-69.4,20.3-70.1,31.8c-0.7,11.5-2.9,25.7,0.5,31c3.4,5.3,68.9,30.2,68.9,30.2
		s-14.2-9.1-14.2-42.2C64.5,87.8,79.4,81.4,79.4,81.4z"/>
	
		<radialGradient id="SVGID_6_" cx="1299.4463" cy="6573.3594" r="147.2821" gradientTransform="matrix(-1 0 0 -1 1299.668 6688.3047)" gradientUnits="userSpaceOnUse">
		<stop  offset="0" style="stop-color:#D76360"/>
		<stop  offset="0.5" style="stop-color:#CC3A37"/>
		<stop  offset="1" style="stop-color:#A10C0B"/>
	</radialGradient>
	<path class="st10" d="M79.4,85.4c0,0-69.4,18.6-70.1,29.1C8.6,125,6.4,138,9.8,142.8s68.9,27.6,68.9,27.6s-14.2-8.3-14.2-38.6
		C64.5,91.3,79.4,85.4,79.4,85.4z"/>
	
		<radialGradient id="SVGID_7_" cx="1223.0156" cy="6602.4072" r="87.8502" gradientTransform="matrix(-1 0 0 -0.6298 1299.668 4243.9551)" gradientUnits="userSpaceOnUse">
		<stop  offset="0" style="stop-color:#FFFFFF"/>
		<stop  offset="1" style="stop-color:#FFFFFF;stop-opacity:0"/>
	</radialGradient>
	<path class="st4" d="M79.4,85.4c0,0-69.4,18.6-70.1,29.1C8.6,125,64.5,137,64.5,131.9C64.5,91.3,79.4,85.4,79.4,85.4z"/>
	<g>
		
			<radialGradient id="SVGID_8_" cx="1201.8652" cy="6614.2461" r="6.4376" gradientTransform="matrix(-1 0 0 -1 1299.668 6688.3047)" gradientUnits="userSpaceOnUse">
			<stop  offset="0" style="stop-color:#D76360"/>
			<stop  offset="0.5" style="stop-color:#CC3A37"/>
			<stop  offset="1" style="stop-color:#A10C0B"/>
		</radialGradient>
		<path class="st11" d="M92.1,81.9c0,0-3.7-8.8,1.2-10.5c4.9-1.7,7.3,2.7,6.3,4.4c-1,1.7-5.6,5.6-5.6,5.6L92.1,81.9z"/>
		
			<radialGradient id="SVGID_9_" cx="1201.8652" cy="85.0288" r="6.4374" gradientTransform="matrix(-1 0 0 1 1299.668 96.8047)" gradientUnits="userSpaceOnUse">
			<stop  offset="0" style="stop-color:#D76360"/>
			<stop  offset="0.5" style="stop-color:#CC3A37"/>
			<stop  offset="1" style="stop-color:#A10C0B"/>
		</radialGradient>
		<path class="st12" d="M92.1,174c0,0-3.7,8.8,1.2,10.5c4.9,1.7,7.3-2.7,6.3-4.4c-1-1.7-5.6-5.6-5.6-5.6L92.1,174z"/>
	</g>
	<g>
		<linearGradient id="SVGID_10_" gradientUnits="userSpaceOnUse" x1="244.7539" y1="173.3896" x2="227.7539" y2="156.0567">
			<stop  offset="0" style="stop-color:#980F08"/>
			<stop  offset="1" style="stop-color:#FF0000"/>
		</linearGradient>
		<path class="st16" d="M235,170.6c-0.5,3.2,0,5.9,4.4,5.1c4.4-0.7,6.8-11.7,6.8-11.7L235,170.6z"/>
		
			<linearGradient id="SVGID_11_" gradientUnits="userSpaceOnUse" x1="244.7539" y1="6533.1602" x2="227.7539" y2="6515.8271" gradientTransform="matrix(1 0 0 -1 0 6615.6602)">
			<stop  offset="0" style="stop-color:#980F08"/>
			<stop  offset="1" style="stop-color:#FF0000"/>
		</linearGradient>
		<path class="st17" d="M235,85.3c-0.5-3.2,0-5.9,4.4-5.1c4.4,0.7,6.8,11.7,6.8,11.7L235,85.3z"/>
	</g>
	<g class="st13">
		<rect x="116.8" y="159.9" width="80.9" height="0.4"/>
		<rect x="116.8" y="95.6" width="80.9" height="0.3"/>
	</g>
	
		<radialGradient id="SVGID_12_" cx="1051.6992" cy="6575.918" r="160.9769" gradientTransform="matrix(-1 0 0 -1.3353 1299.668 8893.2754)" gradientUnits="userSpaceOnUse">
		<stop  offset="0" style="stop-color:#D76360"/>
		<stop  offset="0.5" style="stop-color:#CC3A37"/>
		<stop  offset="1" style="stop-color:#A10C0B"/>
	</radialGradient>
	<path class="st18" d="M222.3,102.1c2.9,8.3,1.7,25.2,1.7,25.2v1.4c0,0,1.2,16.9-1.7,25.2c-2.9,8.3-6.1,11.2-6.1,11.2s11,2.4,20,2.4
		c9,0,13.4-10.5,13.4-38.8c0-0.2,0-0.5,0-0.7c0-0.2,0-0.4,0-0.7c0-28.3-4.4-38.8-13.4-38.8c-9,0-20,2.4-20,2.4
		S219.4,93.8,222.3,102.1z"/>
	<radialGradient id="SVGID_13_" cx="7.8867" cy="127.9458" r="28.8223" gradientUnits="userSpaceOnUse">
		<stop  offset="0" style="stop-color:#000000;stop-opacity:0"/>
		<stop  offset="1" style="stop-color:#000000;stop-opacity:0.3"/>
	</radialGradient>
	<path class="st6" d="M6.7,127.8c0-23.9,3.7-35.1,7.1-40.2c-9.9,6.5-11.5,22-11.7,36.6c0,0,0,0,0,0c0,1.4,0,2.7,0,4.1
		c0,1.4,0,2.8,0,4.1c0,0,0,0,0,0c0.2,14.1,1.7,28.9,10.6,35.8C9.6,160.6,6.7,148,6.7,127.8z"/>
	<radialGradient id="SVGID_14_" cx="9.3301" cy="127.9458" r="28.6926" gradientUnits="userSpaceOnUse">
		<stop  offset="0" style="stop-color:#FFFFFF"/>
		<stop  offset="1" style="stop-color:#FFFFFF;stop-opacity:0"/>
	</radialGradient>
	<path class="st19" d="M13.8,87.6c-1.3,0.9-2.4,1.9-3.5,3c-2.8,6.1-5.4,17.1-5.4,37.2c0,17.9,2.3,29.9,4.9,37.7c0.9,1,1.8,2,2.9,2.8
		c-3.1-7.7-5.9-20.2-5.9-40.5C6.7,103.9,10.5,92.8,13.8,87.6z"/>
	<radialGradient id="SVGID_15_" cx="248.9766" cy="127.9453" r="33.2921" gradientUnits="userSpaceOnUse">
		<stop  offset="0" style="stop-color:#000000;stop-opacity:0"/>
		<stop  offset="1" style="stop-color:#000000;stop-opacity:0.3"/>
	</radialGradient>
	<path class="st14" d="M244.3,81.3c2.5,8.8,5.6,23.7,5.6,43.7c0,21.3-4,39.3-7,49.6c3.2-1.9,5.2-4.6,7-8.3c6.8-14.5,6.8-63.3,0-77.7
		C248.5,85.5,246.8,83.1,244.3,81.3z"/>
	
		<linearGradient id="SVGID_16_" gradientUnits="userSpaceOnUse" x1="97.688" y1="127.9458" x2="104.5137" y2="127.9458" gradientTransform="matrix(0.776 0 0 1 167.9813 0)">
		<stop  offset="0" style="stop-color:#FFFFFF"/>
		<stop  offset="1" style="stop-color:#FFFFFF;stop-opacity:0"/>
	</linearGradient>
	<path class="st20" d="M244.4,92.6c1.1,6.7,2.5,18,2.5,33.1c0,16.1-1.8,29.7-3.1,37.6c1.4-1.5,2.3-3.5,3.1-6.3c3-11,3-47.9,0-58.9
		C246.2,95.8,245.5,94,244.4,92.6z"/>
	<radialGradient id="SVGID_17_" cx="144.4697" cy="128.7734" r="36.0003" gradientUnits="userSpaceOnUse">
		<stop  offset="0" style="stop-color:#FFFFFF"/>
		<stop  offset="1" style="stop-color:#FFFFFF;stop-opacity:0"/>
	</radialGradient>
	<rect x="119.1" y="96.3" class="st5" width="75.3" height="63.2"/>
	<g>
		<linearGradient id="SVGID_18_" gradientUnits="userSpaceOnUse" x1="131.6592" y1="67.332" x2="170.9922" y2="116.665">
			<stop  offset="5.618000e-003" style="stop-color:#4C4C4C"/>
			<stop  offset="8.088201e-002" style="stop-color:#373737"/>
			<stop  offset="0.1734" style="stop-color:#232324"/>
			<stop  offset="0.2676" style="stop-color:#181819"/>
			<stop  offset="0.3652" style="stop-color:#141415"/>
			<stop  offset="0.44" style="stop-color:#1B1C1E"/>
			<stop  offset="0.5621" style="stop-color:#303336"/>
			<stop  offset="0.7152" style="stop-color:#51575E"/>
			<stop  offset="0.8146" style="stop-color:#69727B"/>
			<stop  offset="1" style="stop-color:#3A3C3E"/>
		</linearGradient>
		<path class="st33" d="M200.2,82.1c0,0,1.2,8.5-43.5,8.5c-45.1,0.1-71.3-10.3-71.3-10.3s34.7-0.2,63.3,0.5S200.2,82.1,200.2,82.1z"
			/>
		<linearGradient id="SVGID_19_" gradientUnits="userSpaceOnUse" x1="150.418" y1="196.9131" x2="131.0849" y2="141.5799">
			<stop  offset="5.618000e-003" style="stop-color:#4C4C4C"/>
			<stop  offset="8.088201e-002" style="stop-color:#373737"/>
			<stop  offset="0.1734" style="stop-color:#232324"/>
			<stop  offset="0.2676" style="stop-color:#181819"/>
			<stop  offset="0.3652" style="stop-color:#141415"/>
			<stop  offset="0.44" style="stop-color:#1B1C1E"/>
			<stop  offset="0.5621" style="stop-color:#303336"/>
			<stop  offset="0.7152" style="stop-color:#51575E"/>
			<stop  offset="0.8146" style="stop-color:#69727B"/>
			<stop  offset="1" style="stop-color:#3A3C3E"/>
		</linearGradient>
		<path class="st32" d="M200.2,174.2c0,0,1.2-8.5-43.5-8.5c-45.1-0.1-71.3,10.3-71.3,10.3s34.7,0.2,63.3-0.5
			S200.2,174.2,200.2,174.2z"/>
		<radialGradient id="SVGID_20_" cx="146.5" cy="125" r="69.2722" gradientUnits="userSpaceOnUse">
			<stop  offset="0" style="stop-color:#D76360"/>
			<stop  offset="0.5" style="stop-color:#CC3A37"/>
			<stop  offset="1" style="stop-color:#A10C0B"/>
		</radialGradient>
		<rect x="147.6" y="79.9" class="st21" width="1.5" height="11.4"/>
		<radialGradient id="SVGID_21_" cx="146.5" cy="125" r="69.2721" gradientUnits="userSpaceOnUse">
			<stop  offset="0" style="stop-color:#D76360"/>
			<stop  offset="0.5" style="stop-color:#CC3A37"/>
			<stop  offset="1" style="stop-color:#A10C0B"/>
		</radialGradient>
		<rect x="147.6" y="164.7" class="st22" width="1.5" height="11.3"/>
	</g>
	<path d="M9.3,149v-42c0,0-3.4,9-3.4,22C5.9,141.9,9.3,149,9.3,149z"/>
	<linearGradient id="SVGID_22_" gradientUnits="userSpaceOnUse" x1="82.1782" y1="51.9219" x2="125.5697" y2="141.5473">
		<stop  offset="0" style="stop-color:#FFFFFF"/>
		<stop  offset="1" style="stop-color:#FFFFFF;stop-opacity:0"/>
	</linearGradient>
	<path class="st15" d="M96.9,87.8c1.7,20.3,6.5,39.4,18.4,54.8c0-0.6,0-1.1,0-1.7c-0.1-4.6-0.2-9.4-0.3-13.1c0-3.7,0.1-8.4,0.3-13.1
		c0.2-9.1,0.5-18.5,0-20.6C114.9,92.7,106.1,89.6,96.9,87.8z"/>
	<linearGradient id="SVGID_23_" gradientUnits="userSpaceOnUse" x1="157.2402" y1="291.0703" x2="108.9369" y2="104.3826">
		<stop  offset="0" style="stop-color:#FFFFFF"/>
		<stop  offset="1" style="stop-color:#FFFFFF;stop-opacity:0"/>
	</linearGradient>
	<path class="st23" d="M115.2,94.3c-0.2-1-3.5-2.5-8-3.9c5.8,23.1,8.8,45.9,7.7,71.7c0.2-0.2,0.3-0.3,0.3-0.5
		c0.5-2.1,0.2-11.5,0-20.6c-0.1-4.6-0.2-9.4-0.3-13.1c0-3.7,0.1-8.4,0.3-13.1C115.5,105.8,115.7,96.4,115.2,94.3z"/>
	<g>
		
			<linearGradient id="SVGID_24_" gradientUnits="userSpaceOnUse" x1="-1282.938" y1="5259.3809" x2="-1264.4517" y2="5259.3809" gradientTransform="matrix(6.060000e-002 0.9981 -0.9981 6.060000e-002 5397.1035 1082.9625)">
			<stop  offset="0" style="stop-color:#000000"/>
			<stop  offset="0.315" style="stop-color:#131313"/>
			<stop  offset="1" style="stop-color:#000000"/>
		</linearGradient>
		<path class="st24" d="M66.7,139.1l6.6-17.8c0.1-0.3,0.4-0.4,0.7-0.3l0,0c0.3,0.1,0.4,0.4,0.3,0.7l0,0l-6.6,17.8
			c-0.1,0.3-0.4,0.4-0.7,0.3l0,0c-0.2-0.1-0.4-0.3-0.4-0.5l0,0C66.7,139.3,66.7,139.2,66.7,139.1L66.7,139.1z"/>
		<polygon points="70.3,129.3 70.9,129.8 67.3,135 66.7,134.4 70.3,129.3 		"/>
	</g>
	<g>
		
			<linearGradient id="SVGID_25_" gradientUnits="userSpaceOnUse" x1="-1299.7412" y1="5258.3604" x2="-1281.2549" y2="5258.3604" gradientTransform="matrix(6.060000e-002 0.9981 -0.9981 6.060000e-002 5397.1035 1082.9625)">
			<stop  offset="0" style="stop-color:#000000"/>
			<stop  offset="0.315" style="stop-color:#131313"/>
			<stop  offset="1" style="stop-color:#000000"/>
		</linearGradient>
		<path class="st25" d="M66.7,122.3l6.6-17.8c0.1-0.3,0.4-0.4,0.7-0.3l0,0c0.3,0.1,0.4,0.4,0.3,0.7l0,0l-6.6,17.8
			c-0.1,0.3-0.4,0.4-0.7,0.3l0,0c-0.2-0.1-0.4-0.3-0.4-0.5l0,0C66.7,122.4,66.7,122.4,66.7,122.3L66.7,122.3z"/>
		<polygon points="70.3,112.4 70.9,113 67.3,118.2 66.7,117.6 70.3,112.4 		"/>
	</g>
	<radialGradient id="SVGID_26_" cx="-3.5" cy="87.5005" r="173.9998" gradientUnits="userSpaceOnUse">
		<stop  offset="0" style="stop-color:#D76360"/>
		<stop  offset="0.5" style="stop-color:#CC3A37"/>
		<stop  offset="1" style="stop-color:#A10C0B"/>
	</radialGradient>
	<path class="st26" d="M22.7,86.5c0,0,18.8-3.8,34.1-5.3s24-1,24-1s-29.6,3.7-53.1,13.3c-11.1,4.6-16.2,8.4-16.2,8.4
		S19.8,94.4,21,91C21.5,89.6,22.7,86.5,22.7,86.5z"/>
	<radialGradient id="SVGID_27_" cx="-14" cy="168" r="130.2501" gradientUnits="userSpaceOnUse">
		<stop  offset="0" style="stop-color:#D76360"/>
		<stop  offset="0.5" style="stop-color:#CC3A37"/>
		<stop  offset="1" style="stop-color:#A10C0B"/>
	</radialGradient>
	<path class="st27" d="M22.7,168.8c0,0,18.8,3.8,34.1,5.3s24,1,24,1s-29.6-3.7-53.1-13.3c-11.1-4.6-16.2-8.4-16.2-8.4
		s8.3,7.5,9.5,10.9C21.5,165.7,22.7,168.8,22.7,168.8z"/>
	<g>
		
			<radialGradient id="SVGID_28_" cx="412.8428" cy="1369.6553" r="2.0242" gradientTransform="matrix(2.150000e-002 1.9222 -2.0854 2.330000e-002 2864.0383 -660.3223)" gradientUnits="userSpaceOnUse">
			<stop  offset="0" style="stop-color:#FFFFFF"/>
			<stop  offset="1" style="stop-color:#FFFFFF;stop-opacity:0"/>
		</radialGradient>
		<path class="st28" d="M15.2,166.9c-0.9,0-1.6-1.3-1.6-2.8c0-1.6,0.7-2.8,1.5-2.9c0.9,0,1.6,1.3,1.6,2.8
			C16.7,165.6,16,166.9,15.2,166.9z"/>
		
			<radialGradient id="SVGID_29_" cx="411.5381" cy="1370.3926" r="2.0236" gradientTransform="matrix(2.150000e-002 1.9222 -2.0854 2.330000e-002 2864.0383 -660.3223)" gradientUnits="userSpaceOnUse">
			<stop  offset="0" style="stop-color:#FFFFFF"/>
			<stop  offset="1" style="stop-color:#FFFFFF;stop-opacity:0"/>
		</radialGradient>
		<path class="st29" d="M13.6,164.4c-0.9,0-1.6-1.3-1.6-2.8c0-1.6,0.7-2.8,1.5-2.9c0.9,0,1.6,1.3,1.6,2.8
			C15.1,163.1,14.5,164.4,13.6,164.4z"/>
		
			<radialGradient id="SVGID_30_" cx="202.7305" cy="1366.7236" r="2.0242" gradientTransform="matrix(2.530000e-002 -1.9222 -2.0854 -1.940000e-002 2861.748 506.6743)" gradientUnits="userSpaceOnUse">
			<stop  offset="0" style="stop-color:#FFFFFF"/>
			<stop  offset="1" style="stop-color:#FFFFFF;stop-opacity:0"/>
		</radialGradient>
		<path class="st30" d="M15.2,88.7c-0.9,0-1.6,1.3-1.6,2.8c0,1.6,0.7,2.8,1.5,2.9c0.9,0,1.6-1.3,1.6-2.8
			C16.8,90,16.1,88.7,15.2,88.7z"/>
		
			<radialGradient id="SVGID_31_" cx="201.1553" cy="1367.4912" r="2.0242" gradientTransform="matrix(2.530000e-002 -1.9222 -2.0854 -1.940000e-002 2861.748 506.6743)" gradientUnits="userSpaceOnUse">
			<stop  offset="0" style="stop-color:#FFFFFF"/>
			<stop  offset="1" style="stop-color:#FFFFFF;stop-opacity:0"/>
		</radialGradient>
		<path class="st31" d="M13.6,91.7c-0.9,0-1.6,1.3-1.6,2.8c0,1.6,0.7,2.8,1.5,2.9c0.9,0,1.6-1.3,1.6-2.8
			C15.1,93,14.5,91.7,13.6,91.7z"/>
	</g>
	<linearGradient id="SVGID_32_" gradientUnits="userSpaceOnUse" x1="222.9102" y1="157.5439" x2="182.2442" y2="71.544">
		<stop  offset="5.618000e-003" style="stop-color:#4C4C4C"/>
		<stop  offset="8.088201e-002" style="stop-color:#373737"/>
		<stop  offset="0.1734" style="stop-color:#232324"/>
		<stop  offset="0.2676" style="stop-color:#181819"/>
		<stop  offset="0.3652" style="stop-color:#141415"/>
		<stop  offset="0.44" style="stop-color:#1B1C1E"/>
		<stop  offset="0.5621" style="stop-color:#303336"/>
		<stop  offset="0.7152" style="stop-color:#51575E"/>
		<stop  offset="0.8146" style="stop-color:#69727B"/>
		<stop  offset="1" style="stop-color:#3A3C3E"/>
	</linearGradient>
	<path class="st1" d="M199.7,163.5c3.4,3.9,11.7,4.4,18-1c6.1-5.2,7.5-23.2,7.6-33.9c0,0,0,0,0-0.1c0-0.2,0-1,0-1.2c0,0,0,0,0-0.1
		c-0.1-10.7-1.5-28.7-7.6-33.9c-6.4-5.4-14.6-4.9-18-1C196.3,96.3,196.3,159.6,199.7,163.5z"/>
	<linearGradient id="SVGID_33_" gradientUnits="userSpaceOnUse" x1="183.8887" y1="69.7646" x2="214.4178" y2="132.8228">
		<stop  offset="0" style="stop-color:#FFFFFF"/>
		<stop  offset="1" style="stop-color:#FFFFFF;stop-opacity:0"/>
	</linearGradient>
	<path class="st0" d="M207.3,90c-3,0-5.6,1-7.2,2.8c-1.9,2.2-2.7,26-2.3,45.3c9.4-13.5,13.8-29.6,15.7-46.7
		C211.5,90.5,209.4,90,207.3,90z"/>
</g>
</svg>
